<svg width="65" height="65" viewBox="0 0 65 65" fill="none" xmlns="http://www.w3.org/2000/svg">
<path d="M56.5 27.1627V21.8294C56.499 20.8941 56.2522 19.9755 55.7841 19.1658C55.3161 18.3561 54.6433 17.6837 53.8333 17.216L35.1667 6.54937C34.3559 6.08127 33.4362 5.83484 32.5 5.83484C31.5638 5.83484 30.6441 6.08127 29.8333 6.54937L11.1667 17.216C10.3567 17.6837 9.68395 18.3561 9.2159 19.1658C8.74785 19.9755 8.50096 20.8941 8.5 21.8294V43.1627C8.50096 44.098 8.74785 45.0165 9.2159 45.8263C9.68395 46.636 10.3567 47.3084 11.1667 47.776L29.8333 58.4427C30.6441 58.9108 31.5638 59.1572 32.5 59.1572C33.4362 59.1572 34.3559 58.9108 35.1667 58.4427L40.5 55.4027" stroke="black" stroke-width="5.33333" stroke-linecap="round" stroke-linejoin="round"/>
<path d="M20.5 11.8828L44.5 25.6161" stroke="black" stroke-width="5.33333" stroke-linecap="round" stroke-linejoin="round"/>
<path d="M9.27332 19.1627L32.5 32.4961L55.7266 19.1627" stroke="black" stroke-width="5.33333" stroke-linecap="round" stroke-linejoin="round"/>
<path d="M32.5 59.1628V32.4961" stroke="black" stroke-width="5.33333" stroke-linecap="round" stroke-linejoin="round"/>
<path d="M49.8333 48.4961C53.5152 48.4961 56.5 45.5113 56.5 41.8294C56.5 38.1475 53.5152 35.1627 49.8333 35.1627C46.1514 35.1627 43.1666 38.1475 43.1666 41.8294C43.1666 45.5113 46.1514 48.4961 49.8333 48.4961Z" stroke="black" stroke-width="5.33333" stroke-linecap="round" stroke-linejoin="round"/>
<path d="M54.5533 46.5494L59.1667 51.1628" stroke="black" stroke-width="5.33333" stroke-linecap="round" stroke-linejoin="round"/>
</svg>
