<svg width="154" height="32" viewBox="0 0 154 32" fill="none" xmlns="http://www.w3.org/2000/svg">
<path d="M10.992 27.648C11.6742 26.7776 13.0386 25.0197 14.0278 23.7397C15.0085 22.4597 15.8613 21.4272 15.9124 21.4357C15.9636 21.4528 16.3644 21.9392 16.8078 22.528C17.2427 23.1168 18.4622 24.704 19.5196 26.0693C20.577 27.4347 22.0097 29.2949 22.7004 30.208C23.3911 31.1211 23.9369 31.8976 23.9113 31.9317C23.8942 31.9744 20.9778 32 11.0006 32L10.685 31.8037C10.5145 31.7013 10.216 31.4624 10.0114 31.2747C9.77259 31.0443 9.61909 30.8139 9.5594 30.5664C9.50823 30.3701 9.49118 30.0629 9.51676 29.8837C9.55087 29.7131 9.61056 29.4912 9.66173 29.3973C9.71289 29.3035 10.3098 28.5184 10.992 27.648Z" fill="#B56B1C"/>
<path d="M19.801 1.57867C19.2296 0.827733 18.7691 0.162133 18.7606 0.1024C18.7606 0.0170667 20.0653 0 31.552 0L32.0466 0.290133C32.3109 0.443733 32.635 0.6912 32.7714 0.8448C32.8993 0.989867 33.0443 1.2544 33.0955 1.42507C33.1466 1.60427 33.1637 1.92 33.1381 2.13333C33.104 2.34667 33.0187 2.6112 32.9334 2.73067C32.8567 2.85013 31.8675 4.13867 30.7333 5.58933C29.6077 7.04853 28.2689 8.77227 27.7657 9.42933C27.2626 10.0864 26.8277 10.6155 26.8106 10.5984C26.7936 10.5899 26.2734 9.91573 25.6509 9.10507C25.0369 8.30293 23.6981 6.5792 22.6833 5.29067C21.6685 4.00213 20.3723 2.3296 19.801 1.57867Z" fill="#053D6B"/>
<path d="M7.77715 11.1616C7.98181 11.0592 8.29733 10.9312 8.48494 10.8715C8.74929 10.7861 10.523 10.7605 16.3474 10.7605C21.2934 10.752 23.8943 10.7776 23.9198 10.8373C23.9454 10.88 23.34 11.7163 22.5725 12.6976C21.805 13.6704 20.0227 15.9829 18.6072 17.8347C17.1916 19.6864 15.9551 21.2821 15.8698 21.376C15.7845 21.4699 14.6504 22.9291 13.3457 24.6187C12.0409 26.3083 10.7021 28.032 10.361 28.4587C10.0284 28.8853 9.71291 29.3035 9.66174 29.3973C9.61058 29.4912 9.55088 29.7131 9.51677 29.8923C9.49119 30.0629 9.49972 30.3616 9.55088 30.5493C9.60205 30.7371 9.76407 31.0272 9.90904 31.1979C10.0625 31.3685 10.3354 31.5819 10.506 31.6672C10.6851 31.7611 10.8556 31.872 10.8897 31.9317C10.9409 32.0085 10.7021 32.0171 9.84935 31.9744C9.23536 31.9403 8.54463 31.8635 8.31439 31.7952C8.07561 31.7269 7.73451 31.5563 7.5469 31.4197C7.3593 31.2917 6.76237 30.6091 6.22513 29.9008C5.67936 29.2011 4.22115 27.2981 2.98465 25.6597C1.73963 24.0299 0.56282 22.4683 0.358158 22.1867C0.0682206 21.7685 0 21.6064 0 21.2907C0 21.0773 0.0682206 20.7787 0.144969 20.6336C0.221717 20.48 1.67993 18.5259 3.38545 16.2987C5.09096 14.0715 6.70267 12.0405 6.9585 11.8016C7.2058 11.5541 7.58101 11.264 7.77715 11.1616Z" fill="#F5CC0D"/>
<path d="M31.9784 0.255985C31.7908 0.162119 31.6373 0.068252 31.6458 0.0341187C31.6458 0.00851868 32.0807 0.017052 32.6009 0.042652C33.1296 0.0767854 33.7692 0.136519 34.025 0.187719C34.2809 0.230385 34.6817 0.375452 34.9119 0.503452C35.1763 0.639985 35.4918 0.930119 35.7732 1.27999C36.012 1.58719 37.2485 3.19999 38.5105 4.86399C39.7641 6.52799 41.1967 8.41385 41.6828 9.04532C42.1689 9.67679 42.6038 10.3339 42.6549 10.496C42.7146 10.7093 42.7146 10.88 42.6549 11.0933C42.6038 11.264 41.1541 13.2352 39.2695 15.7013C37.4616 18.0736 35.8158 20.1557 35.6197 20.3264C35.4236 20.4971 35.0142 20.7701 34.1529 21.2053L26.4099 21.2309C20.2445 21.2395 18.6839 21.2224 18.7351 21.1456C18.7692 21.0859 19.6049 19.9936 20.5941 18.7307L20.7379 18.5442C21.7422 17.2422 23.4218 15.0646 24.5594 13.5765C25.7533 12.0064 26.7254 10.6923 26.7084 10.6581C26.6998 10.6155 26.7254 10.5899 26.7681 10.6069C26.8107 10.6155 27.7743 9.41225 28.917 7.93599C30.0512 6.45972 31.39 4.72745 31.8931 4.09599C32.3877 3.46452 32.8653 2.85012 32.942 2.73065C33.0188 2.61119 33.1126 2.34665 33.1382 2.13332C33.1808 1.86879 33.1552 1.62985 33.0614 1.36532C32.9847 1.15199 32.7885 0.853319 32.6265 0.708252C32.456 0.554652 32.166 0.349852 31.9784 0.255985Z" fill="#0D73A8"/>
<path fill-rule="evenodd" clip-rule="evenodd" d="M56.4952 10.6752C56.9642 10.6752 57.7317 10.7264 58.2007 10.7947C58.6697 10.8715 59.4372 11.0592 59.9062 11.2128C60.3752 11.3664 61.0063 11.6224 61.3133 11.776C61.6203 11.9296 62.1063 12.2027 62.4048 12.3819C62.6947 12.5696 62.9335 12.7403 62.9335 12.7744C62.9335 12.8171 62.5583 13.3035 62.0978 13.8667C61.6458 14.4299 61.1854 14.976 61.083 15.0784C60.9807 15.1893 60.8101 15.2747 60.6993 15.2747C60.5884 15.2747 60.1621 15.1125 59.7357 14.9248C59.3093 14.7285 58.6783 14.4981 58.3286 14.4043C57.8511 14.2763 57.4162 14.2336 56.6231 14.2336C55.8045 14.2251 55.3951 14.2677 54.875 14.4128C54.4997 14.5067 53.8516 14.7627 53.4253 14.9675C52.9989 15.1808 52.402 15.5648 52.0779 15.8208C51.7624 16.0853 51.319 16.5376 51.0802 16.8277C50.8499 17.1264 50.4833 17.7067 50.2786 18.1333C50.0654 18.56 49.8266 19.1317 49.7499 19.4133C49.6731 19.712 49.5964 20.3947 49.5708 21.0347C49.5367 21.9648 49.5537 22.2635 49.7072 22.8864C49.8096 23.3045 49.9972 23.8763 50.1251 24.1664C50.2615 24.4651 50.5344 24.9515 50.7391 25.2587C50.9437 25.5659 51.3275 26.0267 51.5833 26.2912C51.8477 26.5557 52.3678 26.9653 52.7431 27.2128C53.1183 27.4603 53.7152 27.7675 54.0648 27.904C54.4145 28.032 54.9517 28.1941 55.2587 28.2453C55.5657 28.3051 56.1797 28.3477 56.6231 28.3477C57.1518 28.3477 57.6976 28.2795 58.2007 28.16C58.6271 28.0661 59.2922 27.8272 59.693 27.6395C60.0938 27.4517 60.4946 27.3067 60.5884 27.3067C60.6822 27.3067 60.8272 27.3493 60.9039 27.4091C60.9807 27.4688 61.4327 28.032 61.9017 28.6464C62.3792 29.2693 62.763 29.824 62.763 29.8667C62.763 29.9093 62.4816 30.1227 62.149 30.336C61.8079 30.5408 61.2195 30.848 60.8443 31.0101C60.469 31.1723 59.7954 31.4027 59.3519 31.5307C58.9085 31.6501 58.0984 31.7952 57.5611 31.8464C56.8192 31.9232 56.3588 31.9232 55.6424 31.8464C55.1308 31.7952 54.3207 31.6501 53.8516 31.5307C53.3826 31.4112 52.5981 31.1125 52.1035 30.8821C51.6089 30.6432 50.9437 30.2763 50.6112 30.0544C50.2871 29.8325 49.6987 29.3461 49.3064 28.9707C48.9057 28.5952 48.3684 27.9979 48.1126 27.648C47.8482 27.2981 47.4474 26.6667 47.2257 26.24C47.004 25.8133 46.7055 25.1307 46.5606 24.704C46.4156 24.2773 46.245 23.6459 46.1854 23.296C46.1171 22.9461 46.0319 22.2891 46.0063 21.8453C45.9722 21.3589 45.9892 20.6933 46.0489 20.1813C46.1001 19.712 46.245 18.9611 46.3559 18.5173C46.4753 18.0565 46.7823 17.2629 47.0637 16.6827C47.3366 16.1195 47.7885 15.3515 48.0699 14.976C48.3514 14.6005 48.9142 13.9776 49.315 13.5851C49.7243 13.2011 50.3724 12.6805 50.7647 12.4245C51.1484 12.1685 51.7539 11.8272 52.1035 11.6651C52.4531 11.5029 53.0501 11.2725 53.4253 11.1531C53.8005 11.0421 54.3974 10.8971 54.747 10.8373C55.0967 10.7861 55.4463 10.7264 55.5145 10.7093C55.5827 10.7008 56.0262 10.6837 56.4952 10.6752V10.6752ZM72.3138 14.72C72.9705 14.7456 73.5589 14.8224 74.1046 14.9589C74.5481 15.0699 75.2047 15.3003 75.5543 15.4624C75.904 15.6245 76.4412 15.9232 76.7482 16.128C77.0552 16.3328 77.5668 16.7509 77.8824 17.0581C78.2064 17.3653 78.6413 17.8517 78.8545 18.1333C79.0677 18.4149 79.4088 18.9781 79.6134 19.3877C79.8181 19.8059 80.091 20.4715 80.2189 20.8811C80.4321 21.5808 80.4492 21.7429 80.4492 23.168C80.4492 24.4907 80.4236 24.7979 80.2615 25.3867C80.1592 25.7621 79.8863 26.4533 79.6561 26.9227C79.4258 27.392 79.0506 28.0235 78.8204 28.3307C78.5816 28.6379 78.1126 29.1499 77.763 29.4656C77.4133 29.7899 76.859 30.2251 76.535 30.4299C76.2024 30.6347 75.614 30.9333 75.2132 31.0955C74.8124 31.2576 74.1984 31.4453 73.8488 31.5221C73.4992 31.5904 72.9022 31.6757 72.527 31.7099C72.1262 31.744 71.5123 31.7184 71.0347 31.6587C70.5913 31.5989 69.9176 31.4624 69.5424 31.3429C69.1672 31.2235 68.5361 30.9589 68.1353 30.7627C67.7345 30.5664 67.1206 30.1739 66.7709 29.8923C66.4213 29.6107 65.9437 29.1755 65.7135 28.9195C65.4833 28.6635 65.1422 28.2283 64.9545 27.9467C64.7584 27.6651 64.4855 27.1616 64.332 26.8373C64.1785 26.5131 63.9483 25.8987 63.8204 25.472C63.5987 24.7552 63.5816 24.6016 63.5816 23.2107C63.5816 21.8283 63.5987 21.6576 63.8204 20.9493C63.9483 20.5227 64.1785 19.9083 64.332 19.584C64.4855 19.2597 64.7755 18.7392 64.9801 18.432C65.1848 18.1248 65.6623 17.5616 66.0375 17.1861C66.4213 16.8021 66.9926 16.3157 67.3252 16.1024C67.6578 15.8891 68.1865 15.5989 68.5191 15.4453C68.8516 15.3003 69.3804 15.104 69.7129 15.0101C70.0455 14.9248 70.5401 14.8139 70.8215 14.7712C71.1029 14.72 71.7766 14.7029 72.3138 14.72V14.72ZM69.8835 18.3467C69.6532 18.4491 69.2439 18.6795 68.9881 18.8501C68.7323 19.0293 68.3144 19.3963 68.0671 19.6779C67.8198 19.9509 67.4872 20.4288 67.3337 20.736C67.1717 21.0432 66.9756 21.5381 66.8903 21.8453C66.805 22.1696 66.7453 22.7157 66.7368 23.168C66.7368 23.5947 66.788 24.1493 66.8477 24.4053C66.9074 24.6613 67.0864 25.1477 67.2485 25.472C67.402 25.7963 67.6748 26.2571 67.8539 26.496C68.033 26.7264 68.4082 27.1019 68.6896 27.3237C68.971 27.5541 69.4315 27.8443 69.7129 27.9893C69.9943 28.1259 70.4889 28.2965 70.8215 28.3733C71.2479 28.4757 71.6572 28.5099 72.2712 28.4843C72.9022 28.4501 73.286 28.3819 73.7635 28.2112C74.1132 28.0917 74.6504 27.8272 74.9489 27.6224C75.2473 27.4261 75.6993 27.0336 75.9551 26.752C76.2109 26.4704 76.5435 25.9925 76.697 25.6853C76.859 25.3781 77.0552 24.9003 77.1405 24.6187C77.2513 24.2603 77.2939 23.8251 77.2939 23.168C77.2939 22.3744 77.2598 22.1269 77.0637 21.5637C76.9358 21.2053 76.6714 20.6507 76.4753 20.3349C76.2706 20.0192 75.8613 19.5413 75.5543 19.2597C75.2473 18.9867 74.7357 18.6283 74.4031 18.4661C74.0705 18.3125 73.5759 18.1163 73.2945 18.048C73.0046 17.9797 72.4503 17.92 72.0154 17.9285C71.589 17.9285 71.0347 17.9883 70.7789 18.048C70.5231 18.1077 70.1223 18.2443 69.8835 18.3467V18.3467ZM108.215 14.6944C108.565 14.6859 109.196 14.7371 109.622 14.8053C110.048 14.8736 110.662 15.0187 110.986 15.1296C111.31 15.2405 111.831 15.4624 112.138 15.616C112.445 15.7696 112.922 16.0597 113.204 16.256C113.485 16.4523 114.048 16.9643 114.449 17.3739C114.875 17.8176 115.344 18.4149 115.574 18.816C115.796 19.1915 116.086 19.7888 116.222 20.1387C116.359 20.4885 116.538 21.1029 116.623 21.504C116.7 21.9051 116.768 22.5963 116.777 23.04C116.785 23.4837 116.751 24.0981 116.649 24.96L113.05 25.0283C111.072 25.0624 108.078 25.088 106.407 25.088C103.542 25.088 103.354 25.0965 103.397 25.2331C103.431 25.3184 103.567 25.6 103.721 25.856C103.874 26.112 104.241 26.5728 104.548 26.88C104.855 27.1872 105.316 27.5627 105.571 27.7077C105.827 27.8613 106.33 28.0917 106.68 28.2197C107.251 28.4245 107.439 28.4501 108.471 28.4587C109.451 28.4587 109.707 28.4331 110.219 28.2624C110.543 28.1515 111.021 27.9467 111.268 27.8101C111.549 27.6565 111.814 27.5712 111.984 27.5797C112.231 27.6053 112.342 27.7163 113.007 28.6293C113.417 29.1925 113.749 29.6789 113.732 29.7131C113.724 29.7472 113.502 29.9349 113.246 30.1227C112.99 30.3189 112.436 30.6432 112.01 30.8565C111.583 31.0613 110.858 31.3344 110.389 31.4539C109.682 31.6416 109.341 31.6757 108.385 31.6843C107.746 31.6928 107.004 31.6416 106.723 31.5819C106.441 31.5221 105.964 31.3941 105.657 31.3003C105.35 31.2064 104.812 30.976 104.463 30.8053C104.113 30.6261 103.576 30.3019 103.269 30.08C102.962 29.8496 102.467 29.4144 102.169 29.1072C101.87 28.8 101.47 28.3136 101.282 28.032C101.086 27.7504 100.77 27.1787 100.574 26.752C100.37 26.3253 100.131 25.6597 100.028 25.2587C99.9347 24.8576 99.8323 24.1067 99.7982 23.5947C99.7641 22.9205 99.7897 22.4341 99.892 21.8624C99.9688 21.4357 100.105 20.8384 100.208 20.5397C100.301 20.2496 100.497 19.7803 100.625 19.4987C100.762 19.2171 101.043 18.7392 101.239 18.432C101.444 18.1248 101.896 17.5872 102.246 17.2288C102.595 16.8789 103.132 16.4181 103.439 16.2133C103.746 16.0085 104.335 15.6757 104.761 15.4795C105.188 15.2832 105.853 15.0443 106.254 14.9419C106.654 14.848 107.115 14.7541 107.277 14.7371C107.439 14.72 107.865 14.6944 108.215 14.6944V14.6944ZM106.126 18.3808C105.895 18.4917 105.452 18.7648 105.154 18.9952C104.855 19.2256 104.437 19.6267 104.241 19.8827C104.036 20.1387 103.755 20.5824 103.619 20.864C103.482 21.1456 103.346 21.4613 103.32 21.5637L103.269 21.76C111.072 21.76 113.331 21.7344 113.331 21.6917C113.331 21.6576 113.169 21.3077 112.973 20.9067C112.692 20.3349 112.47 20.0363 111.933 19.4901C111.464 19.0293 111.055 18.7051 110.645 18.5003C110.321 18.3296 109.818 18.1333 109.537 18.0565C109.247 17.9797 108.692 17.9285 108.258 17.9285C107.831 17.9285 107.277 17.9883 107.021 18.0565C106.765 18.1248 106.364 18.2699 106.126 18.3808V18.3808ZM132.774 14.72C133.329 14.7456 134.053 14.8309 134.437 14.9248C134.812 15.0187 135.426 15.2235 135.802 15.3771C136.177 15.5392 136.774 15.8549 137.123 16.0853C137.473 16.3157 138.078 16.8107 138.454 17.1861C138.837 17.5701 139.332 18.1675 139.562 18.5173C139.793 18.8672 140.117 19.4645 140.27 19.84C140.424 20.2155 140.628 20.8128 140.722 21.1627C140.824 21.5552 140.91 22.2123 140.935 22.8693C140.969 23.6715 140.944 24.1237 140.833 24.704C140.756 25.1307 140.577 25.7792 140.441 26.1547C140.304 26.5301 140.023 27.1275 139.818 27.4773C139.613 27.8272 139.23 28.3733 138.965 28.6891C138.701 29.0133 138.206 29.4997 137.874 29.7813C137.533 30.0544 136.885 30.4811 136.441 30.7115C135.998 30.9419 135.324 31.2235 134.949 31.3429C134.574 31.4624 133.9 31.5989 133.457 31.6587C132.979 31.7184 132.348 31.744 131.922 31.7099C131.521 31.6757 130.89 31.5819 130.515 31.488C130.139 31.4027 129.525 31.1979 129.15 31.0443C128.775 30.8821 128.195 30.5835 127.871 30.3701C127.547 30.1568 126.993 29.7216 126.643 29.3888C126.302 29.0645 125.841 28.5696 125.637 28.288C125.424 28.0064 125.082 27.4432 124.878 27.0251C124.673 26.6155 124.4 25.9499 124.272 25.5317C124.059 24.8405 124.042 24.6869 124.042 23.2107C124.042 21.7259 124.059 21.5893 124.281 20.864C124.409 20.4373 124.665 19.7888 124.852 19.4133C125.048 19.0379 125.364 18.5003 125.569 18.2187C125.765 17.9371 126.217 17.4336 126.558 17.1008C126.907 16.768 127.436 16.3328 127.743 16.128C128.05 15.9232 128.57 15.6331 128.894 15.4795C129.218 15.3259 129.781 15.1211 130.131 15.0272C130.48 14.9248 131.001 14.8139 131.282 14.7712C131.563 14.72 132.237 14.7029 132.774 14.72V14.72ZM130.088 18.4661C129.764 18.6283 129.244 18.9867 128.937 19.2683C128.63 19.5413 128.221 20.0192 128.024 20.3179C127.828 20.6165 127.564 21.1712 127.436 21.5467C127.231 22.1355 127.197 22.3573 127.197 23.2107C127.197 24.0555 127.231 24.2859 127.428 24.8491C127.555 25.216 127.794 25.7365 127.965 26.0011C128.135 26.2741 128.451 26.6837 128.673 26.9056C128.886 27.1275 129.295 27.4688 129.577 27.648C129.858 27.8357 130.378 28.0917 130.728 28.2112C131.163 28.3648 131.615 28.4501 132.135 28.4843C132.587 28.5099 133.133 28.4843 133.457 28.4245C133.764 28.3648 134.207 28.2368 134.437 28.1344C134.676 28.0405 135.111 27.8016 135.418 27.5968C135.725 27.4005 136.117 27.0848 136.296 26.8885C136.467 26.7008 136.765 26.2997 136.953 26.0011C137.149 25.7109 137.396 25.1648 137.524 24.7893C137.686 24.2688 137.737 23.9104 137.746 23.296C137.754 22.8523 137.703 22.272 137.644 22.016C137.584 21.76 137.388 21.2395 137.2 20.864C137.021 20.4885 136.689 19.968 136.458 19.712C136.228 19.456 135.776 19.0635 135.452 18.8331C135.128 18.6112 134.574 18.3296 134.224 18.2016C133.704 18.0224 133.397 17.9712 132.604 17.9456C131.922 17.9285 131.478 17.9627 131.154 18.048C130.898 18.1163 130.412 18.3125 130.088 18.4661V18.4661ZM147.425 14.8565C147.988 14.848 148.602 14.9077 149.164 15.0272C149.65 15.1211 150.409 15.3344 150.853 15.5051C151.296 15.6757 151.97 15.9573 152.345 16.1451C152.72 16.3328 153.036 16.5035 153.053 16.5205C153.061 16.5376 152.592 17.1691 152.004 17.92C151.416 18.6709 150.921 19.2853 150.895 19.2853C150.87 19.2853 150.614 19.1573 150.316 18.9952C150.026 18.8331 149.42 18.5771 148.977 18.432C148.277 18.1931 148.073 18.1589 147.484 18.1931C146.973 18.2101 146.7 18.2699 146.384 18.432C146.146 18.5515 145.873 18.7733 145.762 18.944C145.651 19.1061 145.54 19.3963 145.515 19.584C145.472 19.8144 145.506 20.0107 145.6 20.1984C145.677 20.352 145.915 20.5995 146.137 20.736C146.367 20.8811 146.836 21.0859 147.186 21.1968C147.536 21.3077 148.192 21.4613 148.636 21.5296C149.079 21.6064 149.719 21.7515 150.043 21.8539C150.367 21.9563 150.912 22.1696 151.237 22.3403C151.586 22.5109 152.021 22.8267 152.277 23.0997C152.524 23.3472 152.84 23.7909 152.985 24.0811C153.121 24.3797 153.3 24.9088 153.377 25.2587C153.471 25.6939 153.496 26.1291 153.471 26.624C153.445 27.0251 153.36 27.5968 153.283 27.904C153.198 28.2112 152.993 28.7659 152.823 29.1413C152.618 29.5936 152.354 29.9947 152.047 30.3189C151.765 30.6176 151.356 30.9248 151.023 31.104C150.716 31.2576 150.256 31.4453 150 31.5221C149.744 31.5904 149.224 31.6928 148.849 31.7355C148.422 31.7867 147.826 31.7867 147.271 31.7355C146.777 31.6928 146.052 31.5819 145.651 31.488C145.225 31.3856 144.542 31.1211 143.988 30.848C143.476 30.592 142.794 30.1909 141.899 29.5253L142.794 28.3307C143.374 27.5541 143.775 27.1019 143.928 27.0507C144.116 26.9739 144.193 26.9909 144.372 27.1275C144.491 27.2213 144.832 27.4773 145.139 27.6907C145.446 27.904 145.984 28.1771 146.333 28.2965C146.828 28.4672 147.135 28.5184 147.698 28.5184C148.124 28.5184 148.602 28.4587 148.849 28.3819C149.079 28.3051 149.42 28.1429 149.599 28.0064C149.778 27.8784 150 27.6224 150.094 27.4347C150.179 27.2469 150.256 26.9824 150.256 26.8373C150.256 26.6923 150.162 26.3851 150.06 26.1547C149.949 25.9157 149.693 25.5829 149.48 25.4037C149.275 25.2245 148.891 25.0027 148.636 24.9088C148.38 24.8149 147.612 24.6101 146.93 24.448C146.248 24.2944 145.421 24.064 145.097 23.936C144.773 23.7995 144.304 23.5776 144.073 23.424C143.835 23.2789 143.459 22.9461 143.229 22.6901C143.007 22.4341 142.709 22.0075 142.573 21.7344C142.436 21.4699 142.266 21.0091 142.189 20.7104C142.086 20.3349 142.061 19.9851 142.095 19.4987C142.121 19.1232 142.223 18.5856 142.317 18.304C142.411 18.0224 142.649 17.5445 142.845 17.2373C143.042 16.9301 143.417 16.4779 143.681 16.2304C143.945 15.9829 144.406 15.6501 144.713 15.488C145.02 15.3259 145.557 15.1211 145.907 15.0272C146.333 14.9163 146.836 14.8565 147.416 14.8565H147.425ZM88.8232 15.1467C89.386 15.1637 90.1535 15.2405 90.5287 15.3173C90.904 15.3941 91.2195 15.4709 91.2365 15.488C91.2451 15.5136 90.8187 16.1877 89.3349 18.4405L88.3968 18.4576C87.5782 18.4747 87.3991 18.5003 87.041 18.688C86.8022 18.816 86.5208 19.0549 86.0944 19.6437L86.0518 31.6587H82.5555V25.7451C82.5555 20.0619 82.564 19.8144 82.726 19.1573C82.8283 18.7819 83.016 18.2357 83.1524 17.9371C83.2974 17.6469 83.6299 17.1691 83.9028 16.8789C84.1672 16.5888 84.6191 16.2048 84.9005 16.0256C85.182 15.8379 85.7192 15.5989 86.0944 15.4795C86.4696 15.3685 87.0069 15.232 87.2883 15.1893C87.5697 15.1467 88.2604 15.1296 88.8232 15.1467V15.1467ZM97.4787 15.1125C97.7857 15.1125 98.3571 15.1467 98.7579 15.1979C99.1587 15.2405 99.6874 15.3259 100.387 15.488L98.3741 18.4491L97.4361 18.4661C96.6515 18.4747 96.4384 18.5088 96.1569 18.6624C95.9693 18.7563 95.7306 18.9355 95.6368 19.0464C95.5344 19.1488 95.3724 19.4048 95.2701 19.6011C95.091 19.968 95.091 20.0363 95.091 31.6587H91.68V25.6597C91.68 19.8571 91.6885 19.6523 91.859 19.0293C91.9528 18.6795 92.1575 18.1419 92.3025 17.8347C92.473 17.4848 92.78 17.0752 93.1297 16.7253C93.4708 16.384 93.9142 16.0512 94.2809 15.8549C94.6049 15.6843 95.091 15.488 95.3468 15.4112C95.6027 15.3344 96.0631 15.2405 96.3701 15.1979C96.6771 15.1552 97.1717 15.1211 97.4787 15.1125V15.1125ZM118.712 15.1893H122.209V31.8293H118.712V15.1893Z" fill="#053D6B"/>
</svg>
