<svg width="90" height="40" viewBox="0 0 90 40" fill="none" xmlns="http://www.w3.org/2000/svg">
<g filter="url(#filter0_d_57_31)">
<path d="M74.3887 18.5206L72.2794 5.86438L82.8262 12.1925L77.0255 13.7745L74.3887 18.5206Z" fill="#0D73A8"/>
<path d="M72.5504 5.41192L71.5717 4.82446L71.7594 5.95087L73.8688 18.6071L74.1166 20.0963L74.8496 18.7769L77.3788 14.2249L82.9654 12.7009L84.1572 12.376L83.0973 11.74L72.5504 5.41192Z" stroke="white" stroke-width="1.05469"/>
</g>
<path d="M1.75752 3.73135C1.75752 1.40601 2.81203 0 5.38071 0H8.08458V2.81203H6.78673C5.73221 2.81203 5.46183 3.02834 5.46183 4.21804V5.56998H7.84124V8.57128H5.46183V19.0894H1.75752V8.57128H0V5.56998H1.75752V3.73135Z" fill="black"/>
<path d="M14.5975 19.3597C10.6499 19.3597 7.81082 16.8722 7.81082 12.3297C7.81082 7.78716 10.6228 5.29959 14.4894 5.29959C18.3289 5.29959 20.8435 7.76012 20.8435 12.1134V13.2219H11.6503V13.3571C11.6503 15.358 12.7048 16.7099 14.6246 16.7099C16.0576 16.7099 16.8958 15.9799 17.1392 15.0335H20.6542C20.1946 17.5752 17.9503 19.3597 14.5975 19.3597ZM11.6503 10.9237H17.1121C17.1121 9.13909 16.1928 7.94939 14.4353 7.94939C12.7319 7.94939 11.7585 9.08502 11.6503 10.9237Z" fill="black"/>
<path d="M22.1933 19.0894V0H25.8976V16.2503H27.2496V19.0894H22.1933Z" fill="black"/>
<path d="M28.3531 19.0894V0H32.0574V16.2503H33.4093V19.0894H28.3531Z" fill="black"/>
<path d="M34.5128 19.0894V5.56998H38.2171V19.0894H34.5128ZM34.4588 3.67727H38.2712V0.162232H34.4588V3.67727Z" fill="black"/>
<path d="M40.1181 24.4971V5.56998H43.6602L43.7143 8.05755C44.6065 6.3541 46.0396 5.29959 47.9864 5.29959C50.8795 5.29959 53.3941 7.57085 53.3941 12.3297C53.3941 17.0885 50.8795 19.3597 47.9864 19.3597C46.1207 19.3597 44.7147 18.3863 43.8224 16.7911V24.4971H40.1181ZM43.8224 13.0868C43.8224 15.1687 44.8499 16.5477 46.6615 16.5477C48.5001 16.5477 49.5546 15.1417 49.5546 12.6541V12.0052C49.5546 9.40948 48.5001 7.94939 46.6615 7.94939C44.8499 7.94939 43.8224 9.38244 43.8224 11.5996V13.0868Z" fill="black"/>
<path d="M61.1602 19.3597C57.2125 19.3597 54.3734 16.8722 54.3734 12.3297C54.3734 7.78716 57.1855 5.29959 61.052 5.29959C64.8915 5.29959 67.4061 7.76012 67.4061 12.1134V13.2219H58.2129V13.3571C58.2129 15.358 59.2674 16.7099 61.1872 16.7099C62.6203 16.7099 63.4585 15.9799 63.7018 15.0335H67.2168C66.7572 17.5752 64.513 19.3597 61.1602 19.3597ZM58.2129 10.9237H63.6748C63.6748 9.13909 62.7554 7.94939 60.9979 7.94939C59.2945 7.94939 58.3211 9.08502 58.2129 10.9237Z" fill="black"/>
<path d="M4.97513 34.1867C2.78499 33.6459 0.86524 32.6995 0.86524 30.239C0.86524 27.5892 3.05538 25.9399 6.57041 25.9399C10.7344 25.9399 12.4108 28.2922 12.4919 30.6176H8.89575C8.86871 29.4008 8.13866 28.5085 6.51634 28.5085C5.21848 28.5085 4.51547 29.0493 4.51547 29.8605C4.51547 30.6176 5.1644 30.9961 6.05668 31.2124L8.30089 31.7532C10.491 32.2669 12.4378 33.2403 12.4378 35.7008C12.4378 38.3506 10.2206 40 6.70561 40C2.48756 40 0.811162 37.6747 0.703007 35.3223H4.3262C4.35324 36.485 5.08328 37.4313 6.75969 37.4313C8.05755 37.4313 8.76055 36.8905 8.76055 36.0794C8.76055 35.3223 8.11162 34.9438 7.21935 34.7274L4.97513 34.1867Z" fill="black"/>
<path d="M17.8644 40C15.1335 40 13.7545 38.3506 13.7545 36.3768C13.7545 33.9974 15.7283 32.7807 17.621 32.2399L22.0013 30.9961V30.942C22.0013 29.3197 21.2442 28.5897 19.8382 28.5897C18.4592 28.5897 17.594 29.2927 17.5399 30.7527H13.8086C14.0789 27.6163 16.5665 25.9399 19.9464 25.9399C23.7047 25.9399 25.7056 27.8596 25.7056 31.3206V39.7296H22.1635L22.1365 37.4043C21.2442 38.9996 19.9734 40 17.8644 40ZM17.4588 35.9171C17.4588 36.9176 18.2159 37.4584 19.3785 37.4584C21.0279 37.4584 22.0013 36.3227 22.0013 34.5923V33.3214L19.1893 34.1326C17.9996 34.4841 17.4588 35.0519 17.4588 35.9171Z" fill="black"/>
<path d="M27.5007 39.7296V20.6403H31.205V36.8905H32.557V39.7296H27.5007Z" fill="black"/>
<path d="M37.4189 40C34.688 40 33.309 38.3506 33.309 36.3768C33.309 33.9974 35.2828 32.7807 37.1755 32.2399L41.5558 30.9961V30.942C41.5558 29.3197 40.7987 28.5897 39.3927 28.5897C38.0137 28.5897 37.1485 29.2927 37.0944 30.7527H33.3631C33.6335 27.6163 36.121 25.9399 39.5009 25.9399C43.2592 25.9399 45.2601 27.8596 45.2601 31.3206V39.7296H41.718L41.691 37.4043C40.7987 38.9996 39.5279 40 37.4189 40ZM37.0133 35.9171C37.0133 36.9176 37.7704 37.4584 38.933 37.4584C40.5824 37.4584 41.5558 36.3227 41.5558 34.5923V33.3214L38.7438 34.1326C37.5541 34.4841 37.0133 35.0519 37.0133 35.9171Z" fill="black"/>
<path d="M46.7848 36.2957L53.5445 29.3467H46.7848V26.2102H57.2488V29.6442L50.4891 36.5931H57.4111V39.7296H46.7848V36.2957Z" fill="black"/>
<path d="M62.6505 40C59.9195 40 58.5406 38.3506 58.5406 36.3768C58.5406 33.9974 60.5144 32.7807 62.4071 32.2399L66.7874 30.9961V30.942C66.7874 29.3197 66.0303 28.5897 64.6243 28.5897C63.2453 28.5897 62.3801 29.2927 62.326 30.7527H58.5946C58.865 27.6163 61.3526 25.9399 64.7324 25.9399C68.4908 25.9399 70.4917 27.8596 70.4917 31.3206V39.7296H66.9496L66.9226 37.4043C66.0303 38.9996 64.7595 40 62.6505 40ZM62.2449 35.9171C62.2449 36.9176 63.002 37.4584 64.1646 37.4584C65.814 37.4584 66.7874 36.3227 66.7874 34.5923V33.3214L63.9754 34.1326C62.7857 34.4841 62.2449 35.0519 62.2449 35.9171Z" fill="black"/>
<path d="M72.2868 39.7296V26.2102H75.8289L75.883 29.1575C76.8834 26.8862 78.1001 26.075 79.9388 26.075H80.6418V29.6442H78.695C76.8564 29.6442 75.9911 30.3472 75.9911 32.4832V39.7296H72.2868Z" fill="black"/>
<defs>
<filter id="filter0_d_57_31" x="66.645" y="0.620484" width="23.0623" height="26.3253" filterUnits="userSpaceOnUse" color-interpolation-filters="sRGB">
<feFlood flood-opacity="0" result="BackgroundImageFix"/>
<feColorMatrix in="SourceAlpha" type="matrix" values="0 0 0 0 0 0 0 0 0 0 0 0 0 0 0 0 0 0 127 0" result="hardAlpha"/>
<feOffset dy="1.05469"/>
<feGaussianBlur stdDeviation="2.10937"/>
<feComposite in2="hardAlpha" operator="out"/>
<feColorMatrix type="matrix" values="0 0 0 0 0 0 0 0 0 0 0 0 0 0 0 0 0 0 0.3 0"/>
<feBlend mode="normal" in2="BackgroundImageFix" result="effect1_dropShadow_57_31"/>
<feBlend mode="normal" in="SourceGraphic" in2="effect1_dropShadow_57_31" result="shape"/>
</filter>
</defs>
</svg>
