<svg width="20" height="20" viewBox="0 0 20 20" fill="none" xmlns="http://www.w3.org/2000/svg">
<path fill-rule="evenodd" clip-rule="evenodd" d="M16.388 3.57505C15.5563 2.73793 14.5669 2.07416 13.4768 1.62219C12.3868 1.17023 11.218 0.939046 10.038 0.942045C5.08999 0.942045 1.06199 4.96905 1.05999 9.91905C1.05999 11.501 1.47299 13.045 2.25799 14.407L0.984985 19.058L5.74399 17.809C7.06038 18.5256 8.53518 18.9014 10.034 18.902H10.038C14.985 18.902 19.013 14.875 19.015 9.92505C19.0184 8.74553 18.788 7.57704 18.3371 6.48711C17.8862 5.39717 17.2237 4.40742 16.388 3.57505ZM10.038 17.387H10.035C8.6985 17.3872 7.38662 17.0276 6.23699 16.346L5.96499 16.184L3.14099 16.925L3.89399 14.172L3.71699 13.89C2.96977 12.7005 2.57422 11.3238 2.57599 9.91905C2.57799 5.80505 5.92498 2.45805 10.041 2.45805C11.0212 2.45587 11.9922 2.64813 12.8976 3.0237C13.8031 3.39927 14.6251 3.95069 15.316 4.64605C16.0106 5.33809 16.5612 6.16094 16.9359 7.06704C17.3106 7.97315 17.502 8.94453 17.499 9.92505C17.497 14.039 14.15 17.387 10.038 17.387ZM14.131 11.798C13.906 11.685 12.804 11.143 12.598 11.068C12.393 10.993 12.244 10.956 12.094 11.18C11.944 11.404 11.514 11.909 11.383 12.059C11.252 12.209 11.121 12.227 10.897 12.115C10.673 12.003 9.94999 11.766 9.09299 11.002C8.42599 10.407 7.97599 9.67304 7.84499 9.44804C7.71399 9.22304 7.83098 9.10205 7.94398 8.99005C8.04498 8.89005 8.16799 8.72804 8.27999 8.59704C8.39199 8.46604 8.42899 8.37305 8.50399 8.22305C8.57899 8.07305 8.54199 7.94204 8.48499 7.83004C8.42899 7.71704 7.97998 6.61305 7.79298 6.16405C7.61198 5.72905 7.42699 5.78705 7.28899 5.78105C7.14606 5.7752 7.00303 5.77253 6.85999 5.77305C6.74624 5.77594 6.63432 5.80231 6.53125 5.85049C6.42817 5.89868 6.33616 5.96763 6.26099 6.05305C6.05499 6.27805 5.47599 6.82005 5.47599 7.92405C5.47599 9.02805 6.27998 10.095 6.39198 10.245C6.50398 10.395 7.97399 12.66 10.224 13.632C10.76 13.863 11.178 14.001 11.503 14.105C12.04 14.276 12.529 14.251 12.916 14.194C13.347 14.13 14.243 13.652 14.43 13.128C14.617 12.604 14.617 12.155 14.561 12.061C14.505 11.967 14.354 11.91 14.131 11.798Z" fill="black"/>
</svg>
